<svg width="887" height="122" viewBox="0 0 887 122" fill="none" xmlns="http://www.w3.org/2000/svg">
<path d="M47.0204 46.6667L0 0H96.9796L144 46.6667L96.9796 93.3333H0L47.0204 46.6667Z" fill="#FFD900"/>
<path d="M169.687 46.6667L122.667 0H219.646L266.667 46.6667L219.646 93.3333H122.667L169.687 46.6667Z" fill="#FF00D9"/>
<path d="M293.687 46.6667L246.667 0H343.646L390.667 46.6667L343.646 93.3333H246.667L293.687 46.6667Z" fill="#FF0000"/>
<path d="M417.687 46.6667L370.667 0H467.646L514.667 46.6667L467.646 93.3333H370.667L417.687 46.6667Z" fill="#F06D09"/>
<path d="M541.687 46.6667L494.667 0H591.646L638.667 46.6667L591.646 93.3333H494.667L541.687 46.6667Z" fill="#0E8BD3"/>
<path d="M789.687 46.6667L742.667 0H839.646L886.667 46.6667L839.646 93.3333H742.667L789.687 46.6667Z" fill="#36D30E"/>
<path d="M665.687 46.6667L618.667 0H715.646L762.667 46.6667L715.646 93.3333H618.667L665.687 46.6667Z" fill="#910ED3"/>
<path d="M28.5627 107.77H30.4727V114H31.3827V107.77H33.2827V107.03H28.5627V107.77ZM36.7328 109.2C37.6728 109.2 38.4728 109.79 38.4628 110.86H35.0028C35.1028 109.79 35.8428 109.2 36.7328 109.2ZM39.2928 112.31H38.3128C38.1128 112.9 37.5928 113.32 36.7728 113.32C35.8428 113.32 35.0628 112.71 34.9928 111.6H39.3728C39.3928 111.41 39.4028 111.25 39.4028 111.05C39.4028 109.55 38.3628 108.43 36.7728 108.43C35.1728 108.43 34.0628 109.52 34.0628 111.25C34.0628 112.99 35.2128 114.09 36.7728 114.09C38.1328 114.09 39.0128 113.31 39.2928 112.31ZM40.264 111.24C40.264 112.94 41.394 114.09 42.854 114.09C43.864 114.09 44.574 113.57 44.904 112.98V114H45.824V108.52H44.904V109.52C44.584 108.95 43.884 108.43 42.864 108.43C41.394 108.43 40.264 109.53 40.264 111.24ZM44.904 111.25C44.904 112.54 44.044 113.29 43.044 113.29C42.044 113.29 41.194 112.53 41.194 111.24C41.194 109.95 42.044 109.22 43.044 109.22C44.044 109.22 44.904 109.98 44.904 111.25ZM55.2718 114H56.1718V110.77C56.1718 109.2 55.2018 108.42 53.9518 108.42C53.1118 108.42 52.3318 108.85 52.0118 109.64C51.6518 108.82 50.9018 108.42 50.0018 108.42C49.2818 108.42 48.6318 108.73 48.2718 109.31V108.52H47.3618V114H48.2718V110.98C48.2718 109.8 48.9018 109.21 49.8218 109.21C50.7218 109.21 51.3218 109.78 51.3218 110.9V114H52.2218V110.98C52.2218 109.8 52.8518 109.21 53.7718 109.21C54.6718 109.21 55.2718 109.78 55.2718 110.9V114ZM59.9005 107.77H61.8105V114H62.7205V107.77H64.6205V107.03H59.9005V107.77ZM65.4007 111.24C65.4007 112.94 66.5307 114.09 67.9907 114.09C69.0007 114.09 69.7107 113.57 70.0407 112.98V114H70.9607V108.52H70.0407V109.52C69.7207 108.95 69.0207 108.43 68.0007 108.43C66.5307 108.43 65.4007 109.53 65.4007 111.24ZM70.0407 111.25C70.0407 112.54 69.1807 113.29 68.1807 113.29C67.1807 113.29 66.3307 112.53 66.3307 111.24C66.3307 109.95 67.1807 109.22 68.1807 109.22C69.1807 109.22 70.0407 109.98 70.0407 111.25ZM72.4985 114H73.4085V108.52H72.4985V114ZM72.9685 107.63C73.2985 107.63 73.5685 107.36 73.5685 107.01C73.5685 106.66 73.2985 106.39 72.9685 106.39C72.6185 106.39 72.3485 106.66 72.3485 107.01C72.3485 107.36 72.6185 107.63 72.9685 107.63ZM74.9595 114H75.8695V106.6H74.9595V114ZM82.6204 111.25C82.6204 109.52 81.4104 108.43 79.8504 108.43C78.3004 108.43 77.0804 109.52 77.0804 111.25C77.0804 112.99 78.2604 114.09 79.8104 114.09C81.3704 114.09 82.6204 112.99 82.6204 111.25ZM78.0104 111.25C78.0104 109.87 78.8804 109.22 79.8404 109.22C80.7804 109.22 81.6904 109.87 81.6904 111.25C81.6904 112.64 80.7604 113.29 79.8104 113.29C78.8604 113.29 78.0104 112.64 78.0104 111.25ZM84.7269 111.02C84.7269 109.75 85.3869 109.36 86.2569 109.36H86.4969V108.42C85.6269 108.42 85.0369 108.8 84.7269 109.41V108.52H83.8169V114H84.7269V111.02Z" fill="black"/>
<path d="M136.096 114.01L137.106 114L138.786 108.39L140.406 114H141.426L143.446 107.03H142.466L140.936 112.92L139.336 107.03H138.316L136.636 112.94L135.116 107.03H134.146L136.096 114.01ZM146.772 109.2C147.712 109.2 148.512 109.79 148.502 110.86H145.042C145.142 109.79 145.882 109.2 146.772 109.2ZM149.332 112.31H148.352C148.152 112.9 147.632 113.32 146.812 113.32C145.882 113.32 145.102 112.71 145.032 111.6H149.412C149.432 111.41 149.442 111.25 149.442 111.05C149.442 109.55 148.402 108.43 146.812 108.43C145.212 108.43 144.102 109.52 144.102 111.25C144.102 112.99 145.252 114.09 146.812 114.09C148.172 114.09 149.052 113.31 149.332 112.31ZM150.643 114H151.553V106.6H150.643V114ZM152.764 111.25C152.764 112.99 153.874 114.09 155.434 114.09C156.794 114.09 157.684 113.33 157.964 112.24H156.984C156.784 112.93 156.244 113.32 155.434 113.32C154.434 113.32 153.694 112.61 153.694 111.25C153.694 109.91 154.434 109.2 155.434 109.2C156.244 109.2 156.794 109.62 156.984 110.28H157.964C157.684 109.13 156.794 108.43 155.434 108.43C153.874 108.43 152.764 109.53 152.764 111.25ZM164.378 111.25C164.378 109.52 163.168 108.43 161.608 108.43C160.058 108.43 158.838 109.52 158.838 111.25C158.838 112.99 160.018 114.09 161.568 114.09C163.128 114.09 164.378 112.99 164.378 111.25ZM159.768 111.25C159.768 109.87 160.638 109.22 161.598 109.22C162.538 109.22 163.448 109.87 163.448 111.25C163.448 112.64 162.518 113.29 161.568 113.29C160.618 113.29 159.768 112.64 159.768 111.25ZM173.485 114H174.385V110.77C174.385 109.2 173.415 108.42 172.165 108.42C171.325 108.42 170.545 108.85 170.225 109.64C169.865 108.82 169.115 108.42 168.215 108.42C167.495 108.42 166.845 108.73 166.485 109.31V108.52H165.575V114H166.485V110.98C166.485 109.8 167.115 109.21 168.035 109.21C168.935 109.21 169.535 109.78 169.535 110.9V114H170.435V110.98C170.435 109.8 171.065 109.21 171.985 109.21C172.885 109.21 173.485 109.78 173.485 110.9V114ZM178.207 109.2C179.147 109.2 179.947 109.79 179.937 110.86H176.477C176.577 109.79 177.317 109.2 178.207 109.2ZM180.767 112.31H179.787C179.587 112.9 179.067 113.32 178.247 113.32C177.317 113.32 176.537 112.71 176.467 111.6H180.847C180.867 111.41 180.877 111.25 180.877 111.05C180.877 109.55 179.837 108.43 178.247 108.43C176.647 108.43 175.537 109.52 175.537 111.25C175.537 112.99 176.687 114.09 178.247 114.09C179.607 114.09 180.487 113.31 180.767 112.31ZM188.495 107.02H184.745V114H188.495V113.25H185.655V110.85H188.195V110.1H185.655V107.77H188.495V107.02ZM197.782 114H198.682V110.77C198.682 109.2 197.712 108.42 196.462 108.42C195.622 108.42 194.842 108.85 194.522 109.64C194.162 108.82 193.412 108.42 192.512 108.42C191.792 108.42 191.142 108.73 190.782 109.31V108.52H189.872V114H190.782V110.98C190.782 109.8 191.412 109.21 192.332 109.21C193.232 109.21 193.832 109.78 193.832 110.9V114H194.732V110.98C194.732 109.8 195.362 109.21 196.282 109.21C197.182 109.21 197.782 109.78 197.782 110.9V114ZM199.834 111.24C199.834 112.94 200.964 114.09 202.424 114.09C203.434 114.09 204.144 113.57 204.474 112.98V114H205.394V108.52H204.474V109.52C204.154 108.95 203.454 108.43 202.434 108.43C200.964 108.43 199.834 109.53 199.834 111.24ZM204.474 111.25C204.474 112.54 203.614 113.29 202.614 113.29C201.614 113.29 200.764 112.53 200.764 111.24C200.764 109.95 201.614 109.22 202.614 109.22C203.614 109.22 204.474 109.98 204.474 111.25ZM206.932 114H207.842V108.52H206.932V114ZM207.402 107.63C207.732 107.63 208.002 107.36 208.002 107.01C208.002 106.66 207.732 106.39 207.402 106.39C207.052 106.39 206.782 106.66 206.782 107.01C206.782 107.36 207.052 107.63 207.402 107.63ZM209.393 114H210.303V106.6H209.393V114Z" fill="black"/>
<path d="M265.605 111.43C265.605 113.24 266.785 114.07 268.225 114.07C269.665 114.07 270.855 113.24 270.855 111.43V107.03H269.945V111.44C269.945 112.72 269.265 113.27 268.235 113.27C267.205 113.27 266.515 112.72 266.515 111.44V107.03H265.605V111.43ZM276.314 112.51C276.274 110.55 273.094 111.26 273.094 109.96C273.094 109.52 273.494 109.2 274.164 109.2C274.894 109.2 275.314 109.6 275.354 110.15H276.264C276.204 109.08 275.404 108.43 274.194 108.43C272.974 108.43 272.184 109.12 272.184 109.96C272.184 112 275.424 111.29 275.424 112.51C275.424 112.96 275.024 113.32 274.304 113.32C273.534 113.32 273.064 112.92 273.014 112.39H272.074C272.134 113.39 273.034 114.09 274.314 114.09C275.524 114.09 276.314 113.41 276.314 112.51ZM279.928 109.2C280.868 109.2 281.668 109.79 281.658 110.86H278.198C278.298 109.79 279.038 109.2 279.928 109.2ZM282.488 112.31H281.508C281.308 112.9 280.788 113.32 279.968 113.32C279.038 113.32 278.258 112.71 278.188 111.6H282.568C282.588 111.41 282.598 111.25 282.598 111.05C282.598 109.55 281.558 108.43 279.968 108.43C278.368 108.43 277.258 109.52 277.258 111.25C277.258 112.99 278.408 114.09 279.968 114.09C281.328 114.09 282.208 113.31 282.488 112.31ZM284.709 111.02C284.709 109.75 285.369 109.36 286.239 109.36H286.479V108.42C285.609 108.42 285.019 108.8 284.709 109.41V108.52H283.799V114H284.709V111.02ZM294.876 114H295.836L293.326 107.07H292.276L289.756 114H290.716L291.276 112.45H294.316L294.876 114ZM294.056 111.71H291.536L292.796 108.19L294.056 111.71ZM296.594 111.25C296.594 112.99 297.704 114.09 299.264 114.09C300.624 114.09 301.514 113.33 301.794 112.24H300.814C300.614 112.93 300.074 113.32 299.264 113.32C298.264 113.32 297.524 112.61 297.524 111.25C297.524 109.91 298.264 109.2 299.264 109.2C300.074 109.2 300.624 109.62 300.814 110.28H301.794C301.514 109.13 300.624 108.43 299.264 108.43C297.704 108.43 296.594 109.53 296.594 111.25ZM302.668 111.25C302.668 112.99 303.778 114.09 305.338 114.09C306.698 114.09 307.588 113.33 307.868 112.24H306.888C306.688 112.93 306.148 113.32 305.338 113.32C304.338 113.32 303.598 112.61 303.598 111.25C303.598 109.91 304.338 109.2 305.338 109.2C306.148 109.2 306.698 109.62 306.888 110.28H307.868C307.588 109.13 306.698 108.43 305.338 108.43C303.778 108.43 302.668 109.53 302.668 111.25ZM314.283 111.25C314.283 109.52 313.073 108.43 311.513 108.43C309.963 108.43 308.743 109.52 308.743 111.25C308.743 112.99 309.923 114.09 311.473 114.09C313.033 114.09 314.283 112.99 314.283 111.25ZM309.673 111.25C309.673 109.87 310.543 109.22 311.503 109.22C312.443 109.22 313.353 109.87 313.353 111.25C313.353 112.64 312.423 113.29 311.473 113.29C310.523 113.29 309.673 112.64 309.673 111.25ZM320.339 108.52H319.429V111.53C319.429 112.71 318.799 113.29 317.859 113.29C316.939 113.29 316.329 112.72 316.329 111.61V108.52H315.429V111.73C315.429 113.3 316.419 114.08 317.679 114.08C318.409 114.08 319.079 113.76 319.429 113.19V114H320.339V108.52ZM325.885 114H326.785V110.77C326.785 109.2 325.815 108.42 324.545 108.42C323.805 108.42 323.145 108.73 322.785 109.3V108.52H321.875V114H322.785V110.97C322.785 109.79 323.425 109.21 324.355 109.21C325.275 109.21 325.885 109.78 325.885 110.9V114ZM328.472 112.5C328.472 113.6 329.022 114 329.992 114H330.812V113.23H330.142C329.582 113.23 329.382 113.04 329.382 112.5V109.27H330.812V108.52H329.382V107.14H328.472V108.52H327.762V109.27H328.472V112.5Z" fill="black"/>
<path d="M382.769 114H383.679V110.86H386.139V110.12H383.679V107.77H386.709V107.03H382.769V114ZM387.808 114H388.718V108.52H387.808V114ZM388.278 107.63C388.608 107.63 388.878 107.36 388.878 107.01C388.878 106.66 388.608 106.39 388.278 106.39C387.928 106.39 387.658 106.66 387.658 107.01C387.658 107.36 387.928 107.63 388.278 107.63ZM391.179 111.02C391.179 109.75 391.839 109.36 392.709 109.36H392.949V108.42C392.079 108.42 391.489 108.8 391.179 109.41V108.52H390.269V114H391.179V111.02ZM397.939 112.51C397.899 110.55 394.719 111.26 394.719 109.96C394.719 109.52 395.119 109.2 395.789 109.2C396.519 109.2 396.939 109.6 396.979 110.15H397.889C397.829 109.08 397.029 108.43 395.819 108.43C394.599 108.43 393.809 109.12 393.809 109.96C393.809 112 397.049 111.29 397.049 112.51C397.049 112.96 396.649 113.32 395.929 113.32C395.159 113.32 394.689 112.92 394.639 112.39H393.699C393.759 113.39 394.659 114.09 395.939 114.09C397.149 114.09 397.939 113.41 397.939 112.51ZM399.424 112.5C399.424 113.6 399.974 114 400.944 114H401.764V113.23H401.094C400.534 113.23 400.334 113.04 400.334 112.5V109.27H401.764V108.52H400.334V107.14H399.424V108.52H398.714V109.27H399.424V112.5ZM407.703 107.03H405.533V114H407.703C409.993 114 411.403 112.69 411.403 110.53C411.403 108.37 409.993 107.03 407.703 107.03ZM406.443 113.25V107.77H407.703C409.523 107.77 410.473 108.83 410.473 110.53C410.473 112.23 409.523 113.25 407.703 113.25H406.443ZM412.263 111.24C412.263 112.94 413.393 114.09 414.853 114.09C415.863 114.09 416.573 113.57 416.903 112.98V114H417.823V108.52H416.903V109.52C416.583 108.95 415.883 108.43 414.863 108.43C413.393 108.43 412.263 109.53 412.263 111.24ZM416.903 111.25C416.903 112.54 416.043 113.29 415.043 113.29C414.043 113.29 413.193 112.53 413.193 111.24C413.193 109.95 414.043 109.22 415.043 109.22C416.043 109.22 416.903 109.98 416.903 111.25ZM421.441 112.96L419.721 108.52H418.711L420.921 113.94L419.841 116.58H420.781L424.081 108.52H423.141L421.441 112.96ZM431.412 107.02H427.662V114H431.412V113.25H428.572V110.85H431.112V110.1H428.572V107.77H431.412V107.02ZM440.699 114H441.599V110.77C441.599 109.2 440.629 108.42 439.379 108.42C438.539 108.42 437.759 108.85 437.439 109.64C437.079 108.82 436.329 108.42 435.429 108.42C434.709 108.42 434.059 108.73 433.699 109.31V108.52H432.789V114H433.699V110.98C433.699 109.8 434.329 109.21 435.249 109.21C436.149 109.21 436.749 109.78 436.749 110.9V114H437.649V110.98C437.649 109.8 438.279 109.21 439.199 109.21C440.099 109.21 440.699 109.78 440.699 110.9V114ZM442.751 111.24C442.751 112.94 443.881 114.09 445.341 114.09C446.351 114.09 447.061 113.57 447.391 112.98V114H448.311V108.52H447.391V109.52C447.071 108.95 446.371 108.43 445.351 108.43C443.881 108.43 442.751 109.53 442.751 111.24ZM447.391 111.25C447.391 112.54 446.531 113.29 445.531 113.29C444.531 113.29 443.681 112.53 443.681 111.24C443.681 109.95 444.531 109.22 445.531 109.22C446.531 109.22 447.391 109.98 447.391 111.25ZM449.849 114H450.759V108.52H449.849V114ZM450.319 107.63C450.649 107.63 450.919 107.36 450.919 107.01C450.919 106.66 450.649 106.39 450.319 106.39C449.969 106.39 449.699 106.66 449.699 107.01C449.699 107.36 449.969 107.63 450.319 107.63ZM452.31 114H453.22V106.6H452.31V114Z" fill="black"/>
<path d="M502.018 114H502.978L500.468 107.07H499.418L496.898 114H497.858L498.418 112.45H501.458L502.018 114ZM501.198 111.71H498.678L499.938 108.19L501.198 111.71ZM503.737 111.24C503.737 112.94 504.867 114.09 506.337 114.09C507.337 114.09 508.047 113.58 508.377 112.97V114H509.297V106.6H508.377V109.5C507.997 108.87 507.207 108.43 506.347 108.43C504.867 108.43 503.737 109.53 503.737 111.24ZM508.377 111.25C508.377 112.54 507.517 113.29 506.517 113.29C505.517 113.29 504.667 112.53 504.667 111.24C504.667 109.95 505.517 109.22 506.517 109.22C507.517 109.22 508.377 109.98 508.377 111.25ZM510.494 111.24C510.494 112.94 511.624 114.09 513.094 114.09C514.094 114.09 514.804 113.58 515.134 112.97V114H516.054V106.6H515.134V109.5C514.754 108.87 513.964 108.43 513.104 108.43C511.624 108.43 510.494 109.53 510.494 111.24ZM515.134 111.25C515.134 112.54 514.274 113.29 513.274 113.29C512.274 113.29 511.424 112.53 511.424 111.24C511.424 109.95 512.274 109.22 513.274 109.22C514.274 109.22 515.134 109.98 515.134 111.25ZM517.592 114H518.502V108.52H517.592V114ZM518.062 107.63C518.392 107.63 518.662 107.36 518.662 107.01C518.662 106.66 518.392 106.39 518.062 106.39C517.712 106.39 517.442 106.66 517.442 107.01C517.442 107.36 517.712 107.63 518.062 107.63ZM520.253 112.5C520.253 113.6 520.803 114 521.773 114H522.593V113.23H521.923C521.363 113.23 521.163 113.04 521.163 112.5V109.27H522.593V108.52H521.163V107.14H520.253V108.52H519.543V109.27H520.253V112.5ZM523.696 114H524.606V108.52H523.696V114ZM524.166 107.63C524.496 107.63 524.766 107.36 524.766 107.01C524.766 106.66 524.496 106.39 524.166 106.39C523.816 106.39 523.546 106.66 523.546 107.01C523.546 107.36 523.816 107.63 524.166 107.63ZM531.357 111.25C531.357 109.52 530.147 108.43 528.587 108.43C527.037 108.43 525.817 109.52 525.817 111.25C525.817 112.99 526.997 114.09 528.547 114.09C530.107 114.09 531.357 112.99 531.357 111.25ZM526.747 111.25C526.747 109.87 527.617 109.22 528.577 109.22C529.517 109.22 530.427 109.87 530.427 111.25C530.427 112.64 529.497 113.29 528.547 113.29C527.597 113.29 526.747 112.64 526.747 111.25ZM536.563 114H537.463V110.77C537.463 109.2 536.493 108.42 535.223 108.42C534.483 108.42 533.823 108.73 533.463 109.3V108.52H532.553V114H533.463V110.97C533.463 109.79 534.103 109.21 535.033 109.21C535.953 109.21 536.563 109.78 536.563 110.9V114ZM538.61 111.24C538.61 112.94 539.74 114.09 541.2 114.09C542.21 114.09 542.92 113.57 543.25 112.98V114H544.17V108.52H543.25V109.52C542.93 108.95 542.23 108.43 541.21 108.43C539.74 108.43 538.61 109.53 538.61 111.24ZM543.25 111.25C543.25 112.54 542.39 113.29 541.39 113.29C540.39 113.29 539.54 112.53 539.54 111.24C539.54 109.95 540.39 109.22 541.39 109.22C542.39 109.22 543.25 109.98 543.25 111.25ZM545.708 114H546.618V106.6H545.708V114ZM555.364 112.1C555.364 109.52 551.604 110.64 551.604 108.84C551.604 108.09 552.194 107.7 552.944 107.72C553.794 107.73 554.234 108.26 554.294 108.73H555.294C555.184 107.67 554.314 106.94 552.984 106.94C551.604 106.94 550.674 107.72 550.674 108.87C550.674 111.46 554.444 110.26 554.444 112.14C554.444 112.8 553.924 113.3 553.044 113.3C552.074 113.3 551.664 112.72 551.604 112.14H550.634C550.654 113.29 551.644 114.07 553.044 114.07C554.554 114.07 555.364 113.09 555.364 112.1ZM559.034 109.2C559.974 109.2 560.774 109.79 560.764 110.86H557.304C557.404 109.79 558.144 109.2 559.034 109.2ZM561.594 112.31H560.614C560.414 112.9 559.894 113.32 559.074 113.32C558.144 113.32 557.364 112.71 557.294 111.6H561.674C561.694 111.41 561.704 111.25 561.704 111.05C561.704 109.55 560.664 108.43 559.074 108.43C557.474 108.43 556.364 109.52 556.364 111.25C556.364 112.99 557.514 114.09 559.074 114.09C560.434 114.09 561.314 113.31 561.594 112.31ZM563.815 111.02C563.815 109.75 564.475 109.36 565.345 109.36H565.585V108.42C564.715 108.42 564.125 108.8 563.815 109.41V108.52H562.905V114H563.815V111.02ZM565.985 108.52L568.135 114H569.195L571.345 108.52H570.375L568.675 113.16L566.965 108.52H565.985ZM572.241 114H573.151V108.52H572.241V114ZM572.711 107.63C573.041 107.63 573.311 107.36 573.311 107.01C573.311 106.66 573.041 106.39 572.711 106.39C572.361 106.39 572.091 106.66 572.091 107.01C572.091 107.36 572.361 107.63 572.711 107.63ZM574.362 111.25C574.362 112.99 575.472 114.09 577.032 114.09C578.392 114.09 579.282 113.33 579.562 112.24H578.582C578.382 112.93 577.842 113.32 577.032 113.32C576.032 113.32 575.292 112.61 575.292 111.25C575.292 109.91 576.032 109.2 577.032 109.2C577.842 109.2 578.392 109.62 578.582 110.28H579.562C579.282 109.13 578.392 108.43 577.032 108.43C575.472 108.43 574.362 109.53 574.362 111.25ZM583.106 109.2C584.046 109.2 584.846 109.79 584.836 110.86H581.376C581.476 109.79 582.216 109.2 583.106 109.2ZM585.666 112.31H584.686C584.486 112.9 583.966 113.32 583.146 113.32C582.216 113.32 581.436 112.71 581.366 111.6H585.746C585.766 111.41 585.776 111.25 585.776 111.05C585.776 109.55 584.736 108.43 583.146 108.43C581.546 108.43 580.436 109.52 580.436 111.25C580.436 112.99 581.586 114.09 583.146 114.09C584.506 114.09 585.386 113.31 585.666 112.31ZM590.917 112.51C590.877 110.55 587.697 111.26 587.697 109.96C587.697 109.52 588.097 109.2 588.767 109.2C589.497 109.2 589.917 109.6 589.957 110.15H590.867C590.807 109.08 590.007 108.43 588.797 108.43C587.577 108.43 586.787 109.12 586.787 109.96C586.787 112 590.027 111.29 590.027 112.51C590.027 112.96 589.627 113.32 588.907 113.32C588.137 113.32 587.667 112.92 587.617 112.39H586.677C586.737 113.39 587.637 114.09 588.917 114.09C590.127 114.09 590.917 113.41 590.917 112.51Z" fill="black"/>
<path d="M631.114 109.51C631.114 111.6 632.644 113.06 634.594 113.06C636.104 113.06 637.304 112.31 637.824 110.97H636.734C636.354 111.8 635.614 112.27 634.594 112.27C633.134 112.27 632.044 111.21 632.044 109.51C632.044 107.8 633.134 106.74 634.594 106.74C635.614 106.74 636.354 107.21 636.734 108.05H637.824C637.304 106.7 636.104 105.94 634.594 105.94C632.644 105.94 631.114 107.42 631.114 109.51ZM644.378 110.25C644.378 108.52 643.168 107.43 641.608 107.43C640.058 107.43 638.838 108.52 638.838 110.25C638.838 111.99 640.018 113.09 641.568 113.09C643.128 113.09 644.378 111.99 644.378 110.25ZM639.768 110.25C639.768 108.87 640.638 108.22 641.598 108.22C642.538 108.22 643.448 108.87 643.448 110.25C643.448 111.64 642.518 112.29 641.568 112.29C640.618 112.29 639.768 111.64 639.768 110.25ZM653.485 113H654.385V109.77C654.385 108.2 653.415 107.42 652.165 107.42C651.325 107.42 650.545 107.85 650.225 108.64C649.865 107.82 649.115 107.42 648.215 107.42C647.495 107.42 646.845 107.73 646.485 108.31V107.52H645.575V113H646.485V109.98C646.485 108.8 647.115 108.21 648.035 108.21C648.935 108.21 649.535 108.78 649.535 109.9V113H650.435V109.98C650.435 108.8 651.065 108.21 651.985 108.21C652.885 108.21 653.485 108.78 653.485 109.9V113ZM656.787 108.53V107.52H655.877V115.6H656.787V111.99C657.127 112.55 657.837 113.09 658.837 113.09C660.307 113.09 661.437 111.94 661.437 110.24C661.437 108.53 660.307 107.43 658.837 107.43C657.837 107.43 657.117 107.95 656.787 108.53ZM660.507 110.24C660.507 111.53 659.657 112.29 658.647 112.29C657.657 112.29 656.787 111.54 656.787 110.25C656.787 108.98 657.657 108.22 658.647 108.22C659.657 108.22 660.507 108.95 660.507 110.24ZM667.495 107.52H666.585V110.53C666.585 111.71 665.955 112.29 665.015 112.29C664.095 112.29 663.485 111.72 663.485 110.61V107.52H662.585V110.73C662.585 112.3 663.575 113.08 664.835 113.08C665.565 113.08 666.235 112.76 666.585 112.19V113H667.495V107.52ZM669.232 111.5C669.232 112.6 669.782 113 670.752 113H671.572V112.23H670.902C670.342 112.23 670.142 112.04 670.142 111.5V108.27H671.572V107.52H670.142V106.14H669.232V107.52H668.522V108.27H669.232V111.5ZM675.004 108.2C675.944 108.2 676.744 108.79 676.734 109.86H673.274C673.374 108.79 674.114 108.2 675.004 108.2ZM677.564 111.31H676.584C676.384 111.9 675.864 112.32 675.044 112.32C674.114 112.32 673.334 111.71 673.264 110.6H677.644C677.664 110.41 677.674 110.25 677.674 110.05C677.674 108.55 676.634 107.43 675.044 107.43C673.444 107.43 672.334 108.52 672.334 110.25C672.334 111.99 673.484 113.09 675.044 113.09C676.404 113.09 677.284 112.31 677.564 111.31ZM679.785 110.02C679.785 108.75 680.445 108.36 681.315 108.36H681.555V107.42C680.685 107.42 680.095 107.8 679.785 108.41V107.52H678.875V113H679.785V110.02ZM689.472 107.52C689.522 106.59 688.852 105.89 687.752 105.89C686.622 105.89 685.912 106.55 685.912 107.44C685.912 107.95 686.082 108.34 686.512 108.84C685.422 109.27 684.872 110.04 684.872 111C684.872 112.29 685.862 113.12 687.312 113.12C688.292 113.12 689.042 112.78 689.712 112.08L690.622 113H691.812L690.242 111.43C690.382 111.23 690.512 111.03 690.642 110.8L691.462 109.38H690.482L689.802 110.52C689.742 110.62 689.682 110.71 689.622 110.8L687.542 108.71C687.052 108.19 686.822 107.85 686.822 107.44C686.822 106.98 687.172 106.64 687.712 106.64C688.202 106.64 688.582 106.95 688.562 107.52H689.472ZM687.312 112.34C686.402 112.34 685.782 111.75 685.782 110.97C685.782 110.27 686.192 109.75 687.062 109.42L689.112 111.48C688.592 112.06 688.032 112.34 687.312 112.34ZM695.331 113H696.241V106.03H695.331V113ZM699.961 106.03H697.791V113H699.961C702.251 113 703.661 111.69 703.661 109.53C703.661 107.37 702.251 106.03 699.961 106.03ZM698.701 112.25V106.77H699.961C701.781 106.77 702.731 107.83 702.731 109.53C702.731 111.23 701.781 112.25 699.961 112.25H698.701ZM708.802 111.51C708.762 109.55 705.582 110.26 705.582 108.96C705.582 108.52 705.982 108.2 706.652 108.2C707.382 108.2 707.802 108.6 707.842 109.15H708.752C708.692 108.08 707.892 107.43 706.682 107.43C705.462 107.43 704.672 108.12 704.672 108.96C704.672 111 707.912 110.29 707.912 111.51C707.912 111.96 707.512 112.32 706.792 112.32C706.022 112.32 705.552 111.92 705.502 111.39H704.562C704.622 112.39 705.522 113.09 706.802 113.09C708.012 113.09 708.802 112.41 708.802 111.51Z" fill="black"/>
<path d="M750.406 110.51C750.406 108.42 748.876 106.95 746.906 106.95C744.946 106.95 743.406 108.42 743.406 110.51C743.406 112.6 744.946 114.07 746.906 114.07C748.876 114.07 750.406 112.6 750.406 110.51ZM744.336 110.51C744.336 108.8 745.436 107.74 746.906 107.74C748.376 107.74 749.476 108.8 749.476 110.51C749.476 112.21 748.376 113.28 746.906 113.28C745.436 113.28 744.336 112.21 744.336 110.51ZM755.617 114H756.517V110.77C756.517 109.2 755.547 108.42 754.277 108.42C753.537 108.42 752.877 108.73 752.517 109.3V108.52H751.607V114H752.517V110.97C752.517 109.79 753.157 109.21 754.087 109.21C755.007 109.21 755.617 109.78 755.617 110.9V114ZM758.913 109.54V106.6H758.003V114H758.913V112.99C759.253 113.59 759.963 114.09 760.963 114.09C762.433 114.09 763.563 112.94 763.563 111.24C763.563 109.53 762.443 108.43 760.963 108.43C759.993 108.43 759.263 108.93 758.913 109.54ZM762.633 111.24C762.633 112.53 761.783 113.29 760.773 113.29C759.783 113.29 758.913 112.54 758.913 111.25C758.913 109.98 759.783 109.22 760.773 109.22C761.783 109.22 762.633 109.95 762.633 111.24ZM769.961 111.25C769.961 109.52 768.751 108.43 767.191 108.43C765.641 108.43 764.421 109.52 764.421 111.25C764.421 112.99 765.601 114.09 767.151 114.09C768.711 114.09 769.961 112.99 769.961 111.25ZM765.351 111.25C765.351 109.87 766.221 109.22 767.181 109.22C768.121 109.22 769.031 109.87 769.031 111.25C769.031 112.64 768.101 113.29 767.151 113.29C766.201 113.29 765.351 112.64 765.351 111.25ZM770.818 111.24C770.818 112.94 771.948 114.09 773.408 114.09C774.418 114.09 775.128 113.57 775.458 112.98V114H776.378V108.52H775.458V109.52C775.138 108.95 774.438 108.43 773.418 108.43C771.948 108.43 770.818 109.53 770.818 111.24ZM775.458 111.25C775.458 112.54 774.598 113.29 773.598 113.29C772.598 113.29 771.748 112.53 771.748 111.24C771.748 109.95 772.598 109.22 773.598 109.22C774.598 109.22 775.458 109.98 775.458 111.25ZM778.826 111.02C778.826 109.75 779.486 109.36 780.356 109.36H780.596V108.42C779.726 108.42 779.136 108.8 778.826 109.41V108.52H777.916V114H778.826V111.02ZM781.306 111.24C781.306 112.94 782.436 114.09 783.906 114.09C784.906 114.09 785.616 113.58 785.946 112.97V114H786.866V106.6H785.946V109.5C785.566 108.87 784.776 108.43 783.916 108.43C782.436 108.43 781.306 109.53 781.306 111.24ZM785.946 111.25C785.946 112.54 785.086 113.29 784.086 113.29C783.086 113.29 782.236 112.53 782.236 111.24C782.236 109.95 783.086 109.22 784.086 109.22C785.086 109.22 785.946 109.98 785.946 111.25ZM788.404 114H789.314V108.52H788.404V114ZM788.874 107.63C789.204 107.63 789.474 107.36 789.474 107.01C789.474 106.66 789.204 106.39 788.874 106.39C788.524 106.39 788.254 106.66 788.254 107.01C788.254 107.36 788.524 107.63 788.874 107.63ZM794.875 114H795.775V110.77C795.775 109.2 794.805 108.42 793.535 108.42C792.795 108.42 792.135 108.73 791.775 109.3V108.52H790.865V114H791.775V110.97C791.775 109.79 792.415 109.21 793.345 109.21C794.265 109.21 794.875 109.78 794.875 110.9V114ZM796.921 111.24C796.921 112.94 798.051 114.09 799.521 114.09C800.521 114.09 801.231 113.56 801.561 112.97V114.12C801.561 115.29 800.831 115.91 799.861 115.91C798.961 115.91 798.311 115.46 798.111 114.8H797.211C797.391 115.97 798.421 116.7 799.861 116.7C801.471 116.7 802.481 115.63 802.481 114.12V108.52H801.561V109.52C801.241 108.93 800.521 108.43 799.521 108.43C798.051 108.43 796.921 109.53 796.921 111.24ZM801.561 111.25C801.561 112.54 800.701 113.29 799.701 113.29C798.701 113.29 797.851 112.53 797.851 111.24C797.851 109.95 798.701 109.22 799.701 109.22C800.701 109.22 801.561 109.98 801.561 111.25ZM810.435 107.02H806.685V114H810.435V113.25H807.595V110.85H810.135V110.1H807.595V107.77H810.435V107.02ZM819.722 114H820.622V110.77C820.622 109.2 819.652 108.42 818.402 108.42C817.562 108.42 816.782 108.85 816.462 109.64C816.102 108.82 815.352 108.42 814.452 108.42C813.732 108.42 813.082 108.73 812.722 109.31V108.52H811.812V114H812.722V110.98C812.722 109.8 813.352 109.21 814.272 109.21C815.172 109.21 815.772 109.78 815.772 110.9V114H816.672V110.98C816.672 109.8 817.302 109.21 818.222 109.21C819.122 109.21 819.722 109.78 819.722 110.9V114ZM821.775 111.24C821.775 112.94 822.905 114.09 824.365 114.09C825.375 114.09 826.085 113.57 826.415 112.98V114H827.335V108.52H826.415V109.52C826.095 108.95 825.395 108.43 824.375 108.43C822.905 108.43 821.775 109.53 821.775 111.24ZM826.415 111.25C826.415 112.54 825.555 113.29 824.555 113.29C823.555 113.29 822.705 112.53 822.705 111.24C822.705 109.95 823.555 109.22 824.555 109.22C825.555 109.22 826.415 109.98 826.415 111.25ZM828.873 114H829.783V108.52H828.873V114ZM829.343 107.63C829.673 107.63 829.943 107.36 829.943 107.01C829.943 106.66 829.673 106.39 829.343 106.39C828.993 106.39 828.723 106.66 828.723 107.01C828.723 107.36 828.993 107.63 829.343 107.63ZM831.333 114H832.243V106.6H831.333V114Z" fill="black"/>
</svg>
